[Header]
FileType HTR
DataType HTRS
FileVersion 1
NumSegments 22
NumFrames 5
DataFrameRate 24
EulerRotationOrder ZYX
CalibrationUnits mm
RotationUnits Degrees
GlobalAxisofGravity Y
BoneLengthAxis Y
ScaleFactor 1.0
[SegmentNames&Hierarchy]
reference	GLOBAL
Hips	reference
Spine	Hips
Spine1	Spine
Neck	Spine1
Head	Neck
LeftShoulder	Spine1
LeftArm	LeftShoulder
LeftForeArm	LeftArm
LeftHand	LeftForeArm
RightShoulder	Spine1
RightArm	RightShoulder
RightForeArm	RightArm
RightHand	RightForeArm
LeftUpLeg	Hips
LeftLeg	LeftUpLeg
LeftFoot	LeftLeg
LeftToeBase	LeftFoot
RightUpLeg	Hips
RightLeg	RightUpLeg
RightFoot	RightLeg
RightToeBase	RightFoot
[BasePosition]
reference	0	0	0	0	0	0	1
Hips	0	0	0	0	0	0	1
Spine	0	0	0	0	-0	90	1
Spine1	0	0	0	0	0	0	1
Neck	0	0	0	-7.352327771	-7.352327771	90	1
Head	0	0	0	0	-0	90	1
LeftShoulder	0	0	0	0	0	0	1
LeftArm	0	0	0	0	0	0	1
LeftForeArm	0	0	0	0	0	0	1
LeftHand	0	0	0	0	0	0	1
RightShoulder	0	0	0	0	-0	180	1
RightArm	0	0	0	0	-0	180	1
RightForeArm	0	0	0	0	-0	180	1
RightHand	0	0	0	0	-0	180	1
LeftUpLeg	0	0	0	0	-0	-90	1
LeftLeg	0	0	0	0	-0	-90	1
LeftFoot	0	0	0	66.57146043	-66.57146043	-90	1
LeftToeBase	0	0	0	0	-90	0	1
RightUpLeg	0	0	0	0	-0	-90	1
RightLeg	0	0	0	0	-0	-90	1
RightFoot	0	0	0	66.57146043	-66.57146043	-90	1
RightToeBase	0	0	0	0	-90	0	1
[reference]
37	0	0	0	0	-0	0	1.0
38	0	0	0	0	-0	0	1.0
39	0	0	0	0	-0	0	1.0
40	0	0	0	0	-0	0	1.0
41	0	0	0	0	-0	0	1.0
[Hips]
37	4.054739952	8.01294136	2.209408283	2.111236572	-136.1108398	-1.681106567	1.0
38	3.82564497	8.001291275	2.086232662	2.490236521	-136.2381287	-2.120262861	1.0
39	3.625409126	8.077965736	1.946368933	1.324621677	-136.0502319	-1.023283243	1.0
40	3.433945179	8.175238609	1.801767588	0.9240083694	-136.3662109	-0.04664229974	1.0
41	3.239388466	8.224318504	1.639812708	0.5912780762	-136.9238739	0.7029933333	1.0
[Spine]
37	0	0.7457100153	0	-4.216414928	4.620266438	-90.16222382	1.0
38	0	0.7457100153	0	-4.47505331	2.514464855	-90.2985611	1.0
39	0	0.7457100153	0	-3.926639557	0.1100734174	-89.79777527	1.0
40	0	0.7457100153	0	-3.367746353	-1.842993021	-89.60002899	1.0
41	0	0.7457100153	0	-2.543119192	-3.51426959	-89.65415955	1.0
[Spine1]
37	0	2.140589952	0	11.0464983	1.68878448	-1.513011336	1.0
38	0	2.140589952	0	11.73949432	1.012123466	-1.691941261	1.0
39	0	2.140589952	0	11.37265682	0.2294608951	-1.915329099	1.0
40	0	2.140589952	0	10.38690376	-0.4985477924	-1.672502637	1.0
41	0	2.140589952	0	9.168792725	-1.073377132	-1.253149867	1.0
[Neck]
37	0	2.32246995	0	-21.2747364	9.092447281	-90.94030762	1.0
38	0	2.32246995	0	-20.7581768	9.677825928	-90.85461426	1.0
39	0	2.32246995	0	-20.67679596	10.36936188	-90.65526581	1.0
40	0	2.32246995	0	-20.56922722	11.26377869	-90.02449036	1.0
41	0	2.32246995	0	-21.35199738	12.53814697	-89.47636414	1.0
[Head]
37	0	1.409579992	0.1818799973	-5.928944111	2.009262085	-90.95423126	1.0
38	0	1.409579992	0.1818799973	-6.384888649	2.598795891	-90.96672058	1.0
39	0	1.409579992	0.1818799973	-6.565752029	3.306288719	-91.15511322	1.0
40	0	1.409579992	0.1818799973	-6.770718575	4.203424931	-91.81069946	1.0
41	0	1.409579992	0.1818799973	-6.585072994	5.495052814	-92.12039948	1.0
[LeftShoulder]
37	0.3668199778	1.946700096	-0.02662999928	-12.92490482	-12.62204933	-2.315930128	1.0
38	0.3668199778	1.946700096	-0.02662999928	-14.14745998	-13.32596302	-3.042644262	1.0
39	0.3668199778	1.946700096	-0.02662999928	-15.26100826	-14.48206806	-3.346933365	1.0
40	0.3668199778	1.946700096	-0.02662999928	-15.75219154	-14.90436077	-3.089567184	1.0
41	0.3668199778	1.946700096	-0.02662999928	-15.78356075	-15.06413651	-2.616353035	1.0
[LeftArm]
37	1.140689969	0	0	40.82889175	14.95670605	-70.895401	1.0
38	1.140689969	0	0	44.39485168	11.57969093	-70.73186493	1.0
39	1.140689969	0	0	45.23132324	8.696640968	-70.53407288	1.0
40	1.140689969	0	0	47.40210724	5.969872952	-70.57287598	1.0
41	1.140689969	0	0	49.49022675	3.372998476	-70.20040894	1.0
[LeftForeArm]
37	2.749800205	0	0	-14.04993534	-18.37028503	-1.54171598	1.0
38	2.749800205	0	0	-15.7179203	-18.68617439	0.9264555573	1.0
39	2.749800205	0	0	-16.86280823	-19.29890823	1.870603442	1.0
40	2.749800205	0	0	-16.46534538	-21.50513268	3.55647707	1.0
41	2.749800205	0	0	-15.88183594	-25.63565826	4.537878513	1.0
[LeftHand]
37	2.295179844	0	0	-14.23455906	-5.765647411	-1.283770323	1.0
38	2.295179844	0	0	-15.36807156	-6.452404499	-3.500713587	1.0
39	2.295179844	0	0	-16.42759323	-5.702278137	-2.350630999	1.0
40	2.295179844	0	0	-15.55565643	-6.389446259	-4.172849655	1.0
41	2.295179844	0	0	-14.64747238	-7.796569824	-2.961594105	1.0
[RightShoulder]
37	-0.3601199985	1.946700096	-0.02662999928	-7.121705532	5.464960575	173.618454	1.0
38	-0.3601199985	1.946700096	-0.02662999928	-7.092330456	4.903625965	173.1791077	1.0
39	-0.3601199985	1.946700096	-0.02662999928	-6.868071079	4.375049114	172.8903809	1.0
40	-0.3601199985	1.946700096	-0.02662999928	-5.982287407	4.187195778	173.0523376	1.0
41	-0.3601199985	1.946700096	-0.02662999928	-5.169098854	3.900387764	173.187912	1.0
[RightArm]
37	-1.140689969	0	0	59.97123718	4.798355579	-96.2862854	1.0
38	-1.140689969	0	0	54.91822052	3.844480038	-98.0079422	1.0
39	-1.140689969	0	0	51.31791687	2.424749374	-99.28986359	1.0
40	-1.140689969	0	0	47.39607239	1.169498205	-101.0108032	1.0
41	-1.140689969	0	0	44.12683105	-0.514364779	-102.659111	1.0
[RightForeArm]
37	-2.749800205	0	0	1.372753143	8.991482735	179.8982086	1.0
38	-2.749800205	0	0	2.537849426	9.079629898	180.907196	1.0
39	-2.749800205	0	0	1.748340368	9.181321144	181.1149597	1.0
40	-2.749800205	0	0	2.217003822	9.727526665	182.0472412	1.0
41	-2.749800205	0	0	3.37530899	10.46660519	183.0361938	1.0
[RightHand]
37	-2.295179844	0	0	1.073374987	5.328471184	173.4011688	1.0
38	-2.295179844	0	0	2.092080593	5.420755863	172.1176758	1.0
39	-2.295179844	0	0	1.344183326	4.971212387	172.7499847	1.0
40	-2.295179844	0	0	1.743903995	5.233932972	173.4780121	1.0
41	-2.295179844	0	0	2.791589499	5.766960621	173.9385071	1.0
[LeftUpLeg]
37	0.9094099998	0	0	-18.51662636	-1.959549308	85.0582962	1.0
38	0.9094099998	0	0	-15.66064262	-1.28255868	84.52747345	1.0
39	0.9094099998	0	0	-11.13989258	-0.02446885407	84.61923218	1.0
40	0.9094099998	0	0	-5.193860054	2.046190262	84.87782288	1.0
41	0.9094099998	0	0	0.8113350868	2.589550734	85.42469788	1.0
[LeftLeg]
37	0	-4.498080254	0	53.24298096	-21.07820892	59.44987869	1.0
38	0	-4.498080254	0	52.37915802	-23.52550316	57.39709091	1.0
39	0	-4.498080254	0	44.21481323	-21.01604462	66.4684906	1.0
40	0	-4.498080254	0	32.07447052	-16.33591652	77.01534271	1.0
41	0	-4.498080254	0	20.49484062	-11.73379993	82.84973907	1.0
[LeftFoot]
37	0	-3.729400158	0	-67.51994324	133.954834	7.561691284	1.0
38	0	-3.729400158	0	-67.81207275	135.9055786	8.517795563	1.0
39	0	-3.729400158	0	-72.99551392	129.1936188	1.953651428	1.0
40	0	-3.729400158	0	-82.20522308	121.6445694	-10.14462376	1.0
41	0	-3.729400158	0	-90.06764221	118.220108	-21.40542603	1.0
[LeftToeBase]
37	0	-0.5911099911	1.364109993	0	0	0	1.0
38	0	-0.5911099911	1.364109993	0	0	0	1.0
39	0	-0.5911099911	1.364109993	0	0	0	1.0
40	0	-0.5911099911	1.364109993	0	0	0	1.0
41	0	-0.5911099911	1.364109993	0	0	0	1.0
[RightUpLeg]
37	-0.9094099998	0	0	-12.23007679	-13.2894907	87.09980774	1.0
38	-0.9094099998	0	0	-18.83109665	-13.19307137	89.052948	1.0
39	-0.9094099998	0	0	-24.07557869	-13.46289063	92.54370117	1.0
40	-0.9094099998	0	0	-27.82285309	-12.48254681	95.86615753	1.0
41	-0.9094099998	0	0	-29.48889923	-11.16346931	98.3290863	1.0
[RightLeg]
37	0	-4.498080254	0	72.10540771	12.35056591	85.79613495	1.0
38	0	-4.498080254	0	78.00506592	12.62242222	87.32549286	1.0
39	0	-4.498080254	0	75.14160156	10.5324707	79.32008362	1.0
40	0	-4.498080254	0	67.37666321	7.154285431	74.01222229	1.0
41	0	-4.498080254	0	55.10281372	1.726657033	72.93217468	1.0
[RightFoot]
37	0	-3.729400158	0	90.12718964	46.7240181	112.5391159	1.0
38	0	-3.729400158	0	67.58425903	49.70979309	93.60954285	1.0
39	0	-3.729400158	0	59.90526962	55.21754837	92.45774078	1.0
40	0	-3.729400158	0	59.99375153	58.6601181	99.34391785	1.0
41	0	-3.729400158	0	61.76906586	59.4129715	105.7296448	1.0
[RightToeBase]
37	0	-0.5911099911	1.364109993	0	0	0	1.0
38	0	-0.5911099911	1.364109993	0	0	0	1.0
39	0	-0.5911099911	1.364109993	0	0	0	1.0
40	0	-0.5911099911	1.364109993	0	0	0	1.0
41	0	-0.5911099911	1.364109993	0	0	0	1.0
[EndOfFile]
